<?xml version="1.0" encoding="utf-8"?>
<!-- Generator: Adobe Illustrator 19.2.1, SVG Export Plug-In . SVG Version: 6.00 Build 0)  -->
<svg version="1.1" id="layer" xmlns="http://www.w3.org/2000/svg" xmlns:xlink="http://www.w3.org/1999/xlink" x="0px" y="0px"
	 viewBox="0 0 652 652" style="enable-background:new 0 0 652 652;" xml:space="preserve">
<style type="text/css">
	.st0{fill:#00448C;}
</style>
<g>
	<path class="st0" d="M113.8,321.2c-1.5,6.5-3.3,14.8-4.4,18.9c-2,8.1-3.3,9.3-12.2,9.3c-15,0-29.8-1.1-45-1.1
		c-8.5,0-17.6,0-26.1,0.6v-3.9c11.7,0,14.6-6.8,15-27.6c0.2-9.6,0.4-20.4,0.4-30c0-9.8-0.2-19.6-0.2-29.4c0-22.8-4.4-28.7-15-28.7
		v-3.9h81.6c-0.2,3.7-0.4,7.4-0.4,11.1c0,6.1,0.2,10.9,0.4,15.6h-5c-2.2-14.1-8.3-17.8-30.5-17.8c-5.4,0-8.9,0.4-13.9,0.4
		c0,7.8-0.4,15.6-0.4,23.3c0,7.4-0.2,15-0.2,22.4c3.7,0,10.2,0.2,13.9,0.2c19.3,0,22-3.3,23.1-14.1h4.8c-0.2,6.3-0.2,8.1-0.2,18.5
		c0,9.8,0,11.5,0.2,17.6h-4.8c-1.1-10.4-4.8-14.1-23-14.1c-4.1,0-10,0.2-14.1,0.2v28.7c0,16.8,0.2,22.4,18.3,22.4
		c21.1,0,28.5-6.3,32.6-19.6L113.8,321.2z"/>
	<path class="st0" d="M255.5,348.1c-5.9,0-17.4,0.6-22.2,0.7v-3.9c13,0,13.7-11.1,13.7-28.5c0-7.6-0.9-48-1.7-75
		c-15.4,33.9-30.4,73.7-42.8,107.4h-6.8c-7.8-20.2-30.4-77.2-45-107.6c-0.7,39.1-1.3,66.6-1.3,75.2c0,16.3,0.6,28.5,13.7,28.5v3.9
		c-4.3-0.2-14.3-0.7-19.6-0.7c-5.4,0-15.6,0.6-19.8,0.7v-3.9c14.1,0,15.7-11.7,15.7-28.5c0-6.7,1.5-49.4,1.5-61.5
		c0-16.3-2.2-25.7-13.9-25.7v-3.9c3,0.2,10.4,0.7,17,0.7c6.7,0,14.4-0.6,17.4-0.7c13.1,32.4,26.5,65.7,40.5,97.6
		c13-30.9,26.7-65,38.3-97.6c3.1,0.2,10.9,0.7,17.6,0.7c6.7,0,14.1-0.6,17-0.7v3.9c-11.5,0-13.1,7.4-13.1,23.3
		c0,5.2,0.9,45.2,1.5,63.9c0.4,16.8,1.7,28.5,15.2,28.5v3.9C273.4,348.6,261.6,348.1,255.5,348.1"/>
	<path class="st0" d="M346.5,351.4c-37.4,0-62.6-25.7-62.6-63.1c0-38.3,27-65.5,65-65.5c37.4,0,63.3,25.5,63.3,62.6
		C412.2,323.3,384.5,351.4,346.5,351.4 M346.5,232c-26.1,0-44.1,19.8-44.1,48.7c0,34.4,20.4,61.5,46.8,61.5
		c25.9,0,44.2-21.1,44.2-50.2C393.5,258.1,373,232,346.5,232"/>
	<path class="st0" d="M523,349.7c-9.6,0-16.1-2-22.2-10.7c-10.7-15.7-21.5-31.7-31.8-47.6c-2.8,0.2-5.7,0.4-9.6,0.4
		c-2,0-5.9-0.2-9.1-0.6v25.2c0,17,0.7,28.5,16.8,28.5v3.9c-5.4-0.2-18.2-0.6-24.8-0.6c-6.7,0-19.6,0.4-25.2,0.6v-3.9
		c15.6,0,16.5-11.3,16.5-28.5c0-6.8,0.4-19.4,0.4-29.1c0-9.8-0.2-20.9-0.2-30.7c0-16.3-0.7-27.4-16.5-27.4v-3.9
		c4.1,0.2,13.1,0.7,16.7,0.7c11.3,0,18.3-1.3,29.6-1.3c22.6,0,42.2,6.7,42.2,32.8c0,15.4-9.8,27.6-21.1,30.9
		c7.6,11.1,17.8,25.5,27.2,38c7.6,9.8,16.5,18.5,25,18.5h1.3v3.5C534.4,349.2,527.6,349.7,523,349.7 M460,232.2
		c-3.3,0-6.5,0.2-9.8,0.6V284c3.7,0.4,7.8,0.6,11.7,0.6c15.7,0,26.7-3.9,26.7-22.2C488.5,243.5,479.3,232.2,460,232.2"/>
	<path class="st0" d="M607.2,248.6c-7,11.8-21.7,36.5-25.6,43.7c0,8,0.2,16.1,0.2,24.1c0,17,0.6,28.5,16.5,28.5v3.9
		c-5.6-0.2-18.7-0.4-25-0.4c-6.7,0-19.6,0.2-25,0.4v-3.9c15.6,0,16.3-10.7,16.3-28.5c0-8,0.4-15.9,0.4-23.9
		c-9.1-16.5-19.3-34.4-29.4-50.2c-6.5-10-9.8-13.1-15-13.1v-3.9c3.3,0.2,11.9,0.7,19.6,0.7c6.7,0,15.9-0.6,19.6-0.7v3.9
		c-5.2,0-6.9,1.9-6.9,5c0,2.6,1.7,6.5,6.3,15c5.7,10.9,11.5,20.6,18.2,31.7c6.8-11.7,13.5-22.4,19.4-33.7c4.4-8.3,5.6-11.1,5.6-13.1
		c0-3-2-4.8-7.6-4.8v-3.9c2.4,0.2,9.6,0.7,15.6,0.7c6.1,0,13.5-0.6,15.7-0.7v3.9C620.1,229.2,614.8,235.9,607.2,248.6"/>
	<path class="st0" d="M70.3,428.4c-2.3,0-7.1,0.2-9.1,0.3v-1.4c4.9,0,6-2.6,6-10.3c0-3.5,0.1-7.2,0.1-10.7l-23.1,0.1
		c0,3.5,0.1,7.2,0.1,10.7c0,6.3,0.4,10.2,6,10.2v1.4c-2-0.1-6.8-0.3-9.1-0.3c-2.3,0-7.1,0.2-9.1,0.3v-1.4c4.9,0,6-2.7,6-10.2
		c0-3.5,0.1-7.3,0.1-10.8v-10.9c0-7.8-0.9-10.3-6-10.3v-1.4c2,0.1,6.8,0.3,9.1,0.3c2.3,0,7.1-0.2,9.1-0.3v1.4c-5.1,0-6,2.6-6,10.3
		c0,2.5-0.1,5.2-0.1,7.7h23.1v-7.7c0-7.7-1.1-10.3-6-10.3v-1.4c2,0.1,6.8,0.3,9.1,0.3c2.3,0,7.1-0.2,9.1-0.3v1.4
		c-4.9,0-6,2.6-6,10.3c0,3.6-0.1,7.3-0.1,10.9c0,3.5,0.1,7.2,0.1,10.7c0,6.8,0.6,10.3,6,10.3v1.4C77.4,428.6,72.6,428.4,70.3,428.4"
		/>
	<path class="st0" d="M133.2,418.6c-0.5,2.4-1.2,5.4-1.6,6.9c-0.7,3-1.2,3.4-4.5,3.4c-5.5,0-10.9-0.4-16.4-0.4c-3.1,0-6.4,0-9.5,0.2
		v-1.4c4.3,0,5.3-2.5,5.5-10.1c0.1-3.5,0.1-7.4,0.1-10.9c0-3.6-0.1-7.2-0.1-10.7c0-8.3-1.6-10.5-5.5-10.5v-1.4H131
		c-0.1,1.4-0.1,2.7-0.1,4.1c0,2.2,0.1,4,0.1,5.7h-1.8c-0.8-5.1-3-6.5-11.1-6.5c-2,0-3.2,0.1-5.1,0.1c0,2.8-0.1,5.7-0.1,8.5
		c0,2.7-0.1,5.5-0.1,8.2c1.4,0,3.7,0.1,5.1,0.1c7,0,8-1.2,8.4-5.1h1.8c-0.1,2.3-0.1,3-0.1,6.8c0,3.6,0,4.2,0.1,6.4h-1.8
		c-0.4-3.8-1.8-5.1-8.4-5.1c-1.5,0-3.6,0.1-5.1,0.1v10.5c0,6.1,0.1,8.2,6.7,8.2c7.7,0,10.4-2.3,11.9-7.2L133.2,418.6z"/>
	<path class="st0" d="M194.4,428.7c-2.4-0.1-6.1-0.3-7.6-0.3c-1.6,0-5.9,0.1-8.7,0.3v-1.4c2.9,0,3.9-1.3,3.9-3.2
		c0-1.1-0.6-3.4-2.1-7.7c-0.4-1.1-0.9-2.3-1.3-3.4h-14.1c-0.7,1.8-1.4,3.6-2,5.4c-0.5,1.7-1.6,4.5-1.6,6.2c0,1.8,1.1,2.7,3.4,2.7
		v1.4c-1.9-0.1-4.5-0.3-6.2-0.3c-2,0-4.7,0.1-6.6,0.3v-1.4c1.8,0,3.6-1.7,5-4.7c1.2-2.6,2-4.5,5.3-13.2c2-5.3,3.3-8.7,4.7-12.4
		c1.7-4.5,3.5-8.8,4.7-13.4h3.5c0.9,3.2,3,8.7,4.6,13l7,18.8c3,8.1,4.5,11.8,7.9,11.8V428.7z M171.8,393.3c-2,5.2-4.3,11.1-6.2,16.4
		h12L171.8,393.3z"/>
	<path class="st0" d="M246.4,418.6c-0.5,2.4-1.2,5.1-1.6,6.6c-0.7,2.6-1.3,3.8-3.2,3.8c-2.6,0-12.4-0.5-18.6-0.5c-2.2,0-7,0.2-9,0.3
		v-1.4c5.7,0,6-4.1,6-10.4c0-3.5,0.1-7.1,0.1-10.6c0-3.6,0-7.2-0.1-10.7c-0.1-7.2-0.5-10.5-6-10.5v-1.4c3,0.1,6.1,0.3,9.2,0.3
		c2.8,0,6.2-0.1,9-0.3v1.4c-6,0-6,4.3-6,10.5c-0.1,3.6-0.1,7.2-0.1,10.7c0,3.5,0.1,7.1,0.1,10.6c0,7.1,1.4,8.5,6.8,8.5
		c7.1,0,10.2-2,11.8-7.2L246.4,418.6z"/>
	<path class="st0" d="M295.1,393.6c-1.3-5-3.5-6.3-8.6-6.3h-5c0,2.8-0.1,5.5-0.1,8.2c-0.1,4-0.1,8.4-0.1,10.9c0,3.2,0.1,7.9,0.1,11
		c0,6.7,0.8,9.9,5.9,9.9v1.4c-2-0.1-6.8-0.2-9.1-0.2c-2.3,0-7.1,0.1-9.1,0.2v-1.4c4.6,0,6-2.9,6-9.9c0-3.5,0.1-7.6,0.1-11.1
		c0-3.2-0.1-7.3-0.1-10.7c0-2.8-0.1-5.5-0.1-8.2h-4.8c-5.3,0-7.6,1.1-9,6.3l-1.9-0.3c0.6-3.4,1.2-7,1.4-10.3
		c2.8,0.7,4.2,0.9,11.3,0.9h12.2c7.2,0,8.6-0.1,11.4-0.9c0.3,3.3,0.8,7.2,1.4,10.3L295.1,393.6z"/>
	<path class="st0" d="M354.8,428.4c-2.3,0-7.1,0.2-9.1,0.3v-1.4c4.9,0,6-2.6,6-10.3c0-3.5,0.1-7.2,0.1-10.7l-23.1,0.1
		c0,3.5,0.1,7.2,0.1,10.7c0,6.3,0.4,10.2,6,10.2v1.4c-2-0.1-6.8-0.3-9.1-0.3c-2.3,0-7.1,0.2-9.1,0.3v-1.4c4.9,0,6-2.7,6-10.2
		c0-3.5,0.1-7.3,0.1-10.8v-10.9c0-7.8-0.9-10.3-6-10.3v-1.4c2,0.1,6.8,0.3,9.1,0.3c2.3,0,7.1-0.2,9.1-0.3v1.4c-5.1,0-6,2.6-6,10.3
		c0,2.5-0.1,5.2-0.1,7.7h23.1v-7.7c0-7.7-1.1-10.3-6-10.3v-1.4c2,0.1,6.8,0.3,9.1,0.3c2.3,0,7.1-0.2,9.1-0.3v1.4
		c-4.9,0-6,2.6-6,10.3c0,3.6-0.1,7.3-0.1,10.9c0,3.5,0.1,7.2,0.1,10.7c0,6.8,0.6,10.3,6,10.3v1.4
		C361.9,428.6,357.1,428.4,354.8,428.4"/>
	<path class="st0" d="M418.7,427.2c-4,1.6-7.8,2.4-12.3,2.4c-12,0-24.1-7.2-24.1-23.6c0-13.1,8.5-23.3,24.3-23.3
		c4.5,0,8.7,0.8,12.6,2c-0.1,1.4-0.1,2.8-0.1,4.2v0.5c0,1.3,0,2.9,0.1,4h-1.9c-0.7-4.9-4.3-7.4-10.9-7.4c-10.7,0-17.3,6.8-17.3,17.8
		c0,13,7.3,22.4,17.5,22.4c5.9,0,9.7-3,11.4-8.2l1.8,0.4C419.4,421.8,419.1,424.4,418.7,427.2"/>
	<path class="st0" d="M480.8,428.7c-2.4-0.1-6.1-0.3-7.6-0.3c-1.6,0-5.9,0.1-8.7,0.3v-1.4c2.9,0,3.9-1.3,3.9-3.2
		c0-1.1-0.6-3.4-2.1-7.7c-0.4-1.1-0.9-2.3-1.3-3.4H451c-0.7,1.8-1.4,3.6-2,5.4c-0.5,1.7-1.6,4.5-1.6,6.2c0,1.8,1.1,2.7,3.4,2.7v1.4
		c-1.9-0.1-4.5-0.3-6.2-0.3c-2,0-4.7,0.1-6.6,0.3v-1.4c1.8,0,3.6-1.7,5-4.7c1.2-2.6,2-4.5,5.3-13.2c2-5.3,3.3-8.7,4.7-12.4
		c1.7-4.5,3.5-8.8,4.7-13.4h3.5c0.9,3.2,3,8.7,4.6,13l7,18.8c3,8.1,4.5,11.8,7.9,11.8V428.7z M458.3,393.3c-2,5.2-4.2,11.1-6.2,16.4
		h12L458.3,393.3z"/>
	<path class="st0" d="M538.9,429c-3.5,0-5.9-0.7-8.1-3.9c-3.9-5.7-7.8-11.6-11.6-17.4c-1,0.1-2.1,0.1-3.5,0.1
		c-0.7,0-2.2-0.1-3.3-0.2v9.2c0,6.2,0.3,10.4,6.1,10.4v1.4c-2-0.1-6.6-0.2-9-0.2c-2.4,0-7.2,0.1-9.2,0.2v-1.4c5.7,0,6-4.1,6-10.4
		c0-2.5,0.1-7.1,0.1-10.6c0-3.6-0.1-7.6-0.1-11.2c0-5.9-0.3-10-6-10v-1.4c1.5,0.1,4.8,0.3,6.1,0.3c4.1,0,6.7-0.5,10.8-0.5
		c8.2,0,15.4,2.4,15.4,12c0,5.6-3.6,10.1-7.7,11.3c2.8,4.1,6.5,9.3,9.9,13.9c2.8,3.6,6,6.8,9.1,6.8h0.5v1.3
		C543.1,428.8,540.6,429,538.9,429 M516,386.1c-1.2,0-2.4,0.1-3.6,0.2V405c1.3,0.1,2.8,0.2,4.3,0.2c5.7,0,9.7-1.4,9.7-8.1
		C526.4,390.2,523,386.1,516,386.1"/>
	<path class="st0" d="M594.4,418.6c-0.5,2.4-1.2,5.4-1.6,6.9c-0.7,3-1.2,3.4-4.5,3.4c-5.5,0-10.9-0.4-16.4-0.4c-3.1,0-6.4,0-9.5,0.2
		v-1.4c4.3,0,5.3-2.5,5.5-10.1c0.1-3.5,0.1-7.4,0.1-10.9c0-3.6-0.1-7.2-0.1-10.7c0-8.3-1.6-10.5-5.5-10.5v-1.4h29.8
		c-0.1,1.4-0.1,2.7-0.1,4.1c0,2.2,0.1,4,0.1,5.7h-1.8c-0.8-5.1-3-6.5-11.1-6.5c-2,0-3.2,0.1-5.1,0.1c0,2.8-0.1,5.7-0.1,8.5
		c0,2.7-0.1,5.5-0.1,8.2c1.4,0,3.7,0.1,5.1,0.1c7,0,8-1.2,8.4-5.1h1.8c-0.1,2.3-0.1,3-0.1,6.8c0,3.6,0,4.2,0.1,6.4h-1.8
		c-0.4-3.8-1.8-5.1-8.4-5.1c-1.5,0-3.7,0.1-5.1,0.1v10.5c0,6.1,0.1,8.2,6.7,8.2c7.7,0,10.4-2.3,11.9-7.2L594.4,418.6z"/>
</g>
</svg>
