<svg xmlns="http://www.w3.org/2000/svg" width="134" height="131" viewBox="0 0 134 131">
  <g fill="none" fill-rule="evenodd">
    <polygon fill="#013040" fill-rule="nonzero" points="97.105 21.199 87.058 7.404 83.962 8.797 94.931 24.104"/>
    <path fill="#2EB9E4" fill-rule="nonzero" d="M84.0095257,9.9387747 C78.4946205,12.551858 72.6988016,14.525262 66.7351779,15.8204743 C53.2610277,18.8209091 41.312253,16.3236364 34.863834,20.4442688 C29.3025692,24.00083 25.9578656,33.1186561 25.0336364,35.5232411 C19.753083,49.2939921 12.9392095,47.7950988 11.2973123,49.3866798 C10.1824111,50.4671542 10.9450988,50.4459684 9.28466403,53.5020158 C7.56067194,56.6719368 1.41679842,63.027668 2.57407115,66.0175099 C3.75782609,69.0788538 7.19521739,72.0898814 9.45944664,70.098419 C11.5780237,68.244664 6.97011858,64.8019763 7.40972332,63.4778656 C7.6427668,62.7840316 11.4005929,56.2773518 15.1663636,55.2683794 C18.5296047,54.3785771 24.7502767,53.0544664 30.293004,48.1473123 C35.0386166,43.944585 35.3855336,39.757747 44.746996,36.4395257 C50.6657708,34.3421344 69.6217391,40.4780632 70.2573123,41.1904348 C71.5205138,42.604585 72.3573518,63.3772332 76.7110277,67.4528458 C80.2940711,70.8054941 84.4941502,69.9766008 84.5471146,69.0841502 C84.766917,65.3766403 81.2447826,65.7341502 79.9656917,63.0223715 C77.5425692,57.871581 77.4869565,43.4705534 78.8905138,39.4929249 C79.4201581,38.0205138 84.8543083,37.2657708 89.9759684,31.4767589 C92.4388142,28.6934783 93.177668,25.8386957 93.9244664,23.7545455 L84.0095257,9.9387747 Z"/>
    <path fill="#2EB9E4" fill-rule="nonzero" d="M50.0937549 45.7241897C51.6429644 43.5685375 52.6837154 40.5257312 53.1603953 37.5888538 51.4653758 37.2971978 49.7504714 37.1360658 48.0307905 37.1068775 47.0407091 37.0720939 46.0515436 37.1981991 45.1018577 37.4802767 43.4705349 38.0360324 41.8978585 38.7509659 40.4065613 39.6147431 40.5283794 41.0474308 40.5575099 42.3477075 40.3456522 43.1342292 38.046996 51.7303557 33.1610277 53.1286166 33.1290735 55.3319368 33.105415 57.1724506 35.5126482 58.541581 37.9834387 61.7697628 39.3366798 63.5387747 40.8726482 65.9804348 42.9567984 66.9205534 44.5457312 67.6408696 49.5773518 67.9798419 49.484664 66.2479051 49.4105138 65.0032411 47.8798419 63.1097628 46.4603953 63.027668 44.291502 62.9005534 39.9828458 58.5495257 40.666087 56.1740711 42.0378656 51.3966798 47.8480632 48.8437945 50.0937549 45.7241897zM92.8890119 29.2178261C92.3034332 30.2901007 91.5989826 31.2930322 90.7889723 32.207668 90.1645182 32.9138086 89.5014482 33.5848354 88.8028063 34.217668 91.1120553 33.8681028 93.5166403 33.7303953 93.8211858 34.7473123 94.35083 36.4501186 89.7190909 39.4134783 89.0543874 40.7216996 88.3896838 42.0299209 88.5803557 44.6357708 89.5840316 45.6738735 90.1825296 46.2935573 92.2481423 45.5282213 92.8228063 44.3497628 93.4848617 42.975336 101.032292 34.8479447 99.8008696 31.6806719 98.9375494 29.4773518 96.4667589 29.2496047 92.8890119 29.2178261zM109.498656 14.7135178L109.588696 14.1282609 110.16336 13.974664 110.605613 13.8528458 110.708893 13.8263636C110.830779 13.794419 110.95629 13.7783964 111.082292 13.7786957 111.546012 13.8145312 111.997075 13.9471439 112.406403 14.1679842 113.423694 14.669908 114.542582 14.9317369 115.676957 14.9333202 117.071295 14.896619 118.448974 14.6207248 119.749921 14.117668L119.890277 14.0647036C121.007826 12.3327668 121.601028 10.5716996 121.328261 9.726917 121.174664 9.25288538 120.499368 8.78679842 119.588379 8.34454545 117.448617 7.30644269 114.013874 6.40339921 112.967826 5.86316206 112.205138 5.46857708 111.664901 4.80387352 111.159091 3.74458498 110.221621 1.80873518 101.233557-.675296443 99.4380632.606442688 95.8158523 3.23417464 92.0398175 5.64305489 88.1301581 7.82019763L96.9249012 19.8801976C98.7786561 18.3362846 101.651976 16.4004348 105.558103 16.5566798 106.784229 16.6043478 107.896482 17.3908696 108.939881 18.3601186L109.498656 14.7135178zM103.810277 7.96849802C103.529565 9.10193676 104.390237 10.3677866 103.977115 11.7713439 103.25415 14.1918182 100.126601 16.4639921 98.9799209 16.9486166 94.9916996 18.6090514 93.6278656 11.5065217 93.6199209 8.72059289 93.6199209 7.79106719 95.6537549 5.25142292 96.0721739 5.24612648 96.1675099 5.24612648 93.9800791 7.82549407 94.2396047 9.29790514 94.5256126 10.9265613 95.4789723 16.1329644 97.6054941 15.9555336 98.6806719 15.8654941 101.892964 14.1203162 102.774822 12.0652964 103.452767 10.4763636 102.774822 9.0701581 103.158814 7.88905138 103.987708 5.31762846 104.949012 5.24083004 105.089368 5.24083004 105.685217 5.24083004 104.459091 5.26996047 103.810277 7.96849802z"/>
    <path fill="#013040" fill-rule="nonzero" d="M129.69664,17.946996 L133.224071,16.9274308 L120.054466,14.9730435 C119.111853,15.324883 118.135776,15.5795503 117.141423,15.733083 L129.69664,17.946996 Z"/>
    <polygon fill="#013040" fill-rule="nonzero" points="129.368 18.506 110.351 15.153 108.815 25.084 127.583 30.039"/>
    <polygon fill="#013040" fill-rule="nonzero" points="127.877 30.116 127.88 30.116 127.88 30.116"/>
    <polygon fill="#013040" fill-rule="nonzero" points="129.983 18.495 128.243 29.742 132.93 24.938 133.905 17.362"/>
    <path fill="#2EB9E4" fill-rule="nonzero" d="M13.1139921,26.6252174 C22.0729249,29.9090119 25.2958103,27.5388538 29.4137945,24.8032411 C30.8517787,22.7429249 32.5651779,20.8494466 34.5566403,19.5756522 C34.7022925,19.4803162 34.8532411,19.3982213 35.0041897,19.31083 C30.4042292,19.1651779 22.0755731,19.0751383 15.338498,17.886087 C9.45944664,16.8506324 1.55185771,15.3835178 0.195968379,16.4189723 C-1.02221344,17.3352569 3.42679842,23.0739526 13.1139921,26.6252174 Z"/>
    <line x1="120.822" x2="120.822" y1="12.338" y2="12.338"/>
    <line x1="95.532" x2="95.532" y1="59.026" y2="59.026"/>
    <path fill="#013040" fill-rule="nonzero" d="M25.3858498 77.3413043C24.2885223 77.0293284 23.157431 76.8514838 22.0173123 76.8116601 19.8404743 76.822253 19.0671937 77.8577075 19.0671937 79.8809486L19.0671937 81.7479447 25.436166 81.7479447 25.436166 87.1264822 18.9056522 87.1264822 18.9056522 111.016087 11.0801581 111.016087 11.0801581 87.1264822 6.77944664 87.1264822 6.77944664 81.7479447 11.2364032 81.7479447 11.2364032 79.6743874C11.2364032 74.8016601 14.4486957 70.5009486 21.7048221 70.5009486 23.3099232 70.4717047 24.9120877 70.649723 26.4716206 71.0305929L25.3858498 77.3413043zM51.1424506 108.333439C48.862332 110.187194 46.0101976 111.598696 40.4145059 111.598696 31.190751 111.598696 26.4742688 106.416126 26.4742688 96.3105138 26.4742688 86.824585 31.7707115 81.1759289 40.2052964 81.1759289 47.6679842 81.1759289 51.9713439 85.8924111 51.9713439 93.0452569 51.9795718 94.7961107 51.8583056 96.5451758 51.6085375 98.2781423L34.1435178 98.2781423C34.2467984 102.891344 36.3203557 105.42834 41.2937154 105.42834 43.7061345 105.455322 46.0256217 104.499227 47.7183004 102.780119L51.1424506 108.333439zM34.2997628 93.0955731L44.6119368 93.0955731 44.6119368 92.0071542C44.5086561 88.7948617 43.0574308 87.0841107 39.9987352 87.0841107 36.4766008 87.0841107 34.4030435 89.6767194 34.2997628 93.0955731L34.2997628 93.0955731zM57.5696838 101.64668L57.5696838 87.7064427 53.8356917 87.7064427 53.8356917 82.8363636 57.62 81.2792095 60.3158893 74.393834 65.289249 74.393834 65.289249 81.7532411 72.5983399 81.7532411 72.5983399 87.7117391 65.289249 87.7117391 65.289249 101.858538C65.289249 103.881779 66.4306324 104.917233 68.3479447 104.917233 69.7805615 104.911272 71.1756419 104.458588 72.3388142 103.622253L74.3594071 109.47747C73.3742688 110.203083 71.0941502 111.291502 66.2240711 111.291502 61.1950988 111.286206 57.5696838 108.746561 57.5696838 101.64668zM89.0782213 81.1759289C93.7947036 81.1759289 97.2135573 82.7833992 99.183834 85.4263241L93.9483004 90.402332C92.9419655 88.6658591 91.0852161 87.5986573 89.0782213 87.6031621 85.7096838 87.6031621 83.5328458 89.6767194 83.5328458 96.0509881 83.5328458 102.269012 85.3468775 105.171462 89.0252569 105.171462 91.0821888 105.200013 92.9921666 104.108597 94.0118577 102.321976L98.9878656 106.935178C97.3274308 109.162332 94.5309091 111.598696 88.3102372 111.598696 80.3814625 111.598696 75.5616846 107.24502 75.5616846 96.6733202 75.5511067 86.358498 81.1494466 81.1759289 89.0782213 81.1759289zM127.273518 91.2815415L127.273518 111.02668 119.448024 111.02668 119.448024 92.8386957C119.448024 89.7270356 118.047115 88.1725296 115.40419 88.1725296 113.550435 88.1725296 111.363004 89.5707905 110.372569 91.3874704L110.372569 111.02668 102.552372 111.02668 102.552372 71.7456126 110.377866 71.7456126 110.377866 84.7007115 110.584427 84.7007115C112.627847 82.6500934 115.411855 81.5101398 118.30664 81.5387352 124.008261 81.5387352 127.273518 84.7007115 127.273518 91.2815415z"/>
    <g fill-rule="nonzero" transform="translate(11.123 116.257)">
      <path fill="#2EB8E4" d="M3.20507246,11.0406324 C4.01299078,11.0406324 4.77517787,10.5985639 5.32395257,10.0497892 L5.38492754,10.0497892 L5.50687747,10.8577075 L6.95503294,10.8577075 L6.95503294,0.0956258235 L5.20200264,0.0956258235 L5.20200264,2.80901186 L5.2629776,4.01326746 C4.68371542,3.51022398 4.15018445,3.1901054 3.29653491,3.1901054 C1.66545455,3.1901054 0.125836627,4.68399209 0.125836627,7.12299078 C0.125836627,9.59247694 1.33009223,11.0406324 3.20507246,11.0406324 Z M3.63189723,9.59247694 C2.54959157,9.59247694 1.9398419,8.72358366 1.9398419,7.10774704 C1.9398419,5.53764163 2.71727273,4.63826087 3.67762846,4.63826087 C4.18067194,4.63826087 4.68371542,4.80594203 5.20200264,5.26325428 L5.20200264,8.75407115 C4.69895916,9.33333333 4.21115942,9.59247694 3.63189723,9.59247694 Z M12.381805,11.0406324 C13.326917,11.0406324 14.2262978,10.7052701 14.9427536,10.2327141 L14.3482477,9.13516469 C13.799473,9.48577075 13.2506983,9.68393939 12.6104611,9.68393939 C11.4062055,9.68393939 10.552556,8.92175231 10.4001186,7.59554677 L15.156166,7.59554677 C15.2018972,7.41262187 15.2323847,7.07725955 15.2323847,6.74189723 C15.2323847,4.65350461 14.1653228,3.1901054 12.1379051,3.1901054 C10.3848748,3.1901054 8.6928195,4.68399209 8.6928195,7.12299078 C8.6928195,9.59247694 10.3086561,11.0406324 12.381805,11.0406324 Z M13.7080105,6.40653491 L10.3848748,6.40653491 C10.5373123,5.20227931 11.2994993,4.54679842 12.1836364,4.54679842 C13.2049671,4.54679842 13.7080105,5.24801054 13.7080105,6.40653491 Z M18.6164954,11.0406324 C19.0280764,11.0406324 19.3329513,10.9796574 19.5463636,10.888195 L19.3177075,9.5772332 C19.1805138,9.60772069 19.1195389,9.60772069 19.0433202,9.60772069 C18.8603953,9.60772069 18.6622266,9.45528327 18.6622266,9.0284585 L18.6622266,0.0956258235 L16.9091963,0.0956258235 L16.9091963,8.93699605 C16.9091963,10.2327141 17.3665086,11.0406324 18.6164954,11.0406324 Z M21.9243874,2.06206851 C22.5493808,2.06206851 23.006693,1.65048748 23.006693,1.0712253 C23.006693,0.476719368 22.5493808,0.0651383399 21.9243874,0.0651383399 C21.2993939,0.0651383399 20.8420817,0.476719368 20.8420817,1.0712253 C20.8420817,1.65048748 21.2993939,2.06206851 21.9243874,2.06206851 Z M22.7932806,10.8577075 L22.7932806,3.3730303 L21.0402503,3.3730303 L21.0402503,10.8577075 L22.7932806,10.8577075 Z M28.7383399,10.8577075 L31.2840448,3.3730303 L29.5919895,3.3730303 L28.4029776,7.26018445 C28.1895652,7.99188406 27.9761528,8.75407115 27.7627404,9.51625823 L27.7017655,9.51625823 C27.5035968,8.75407115 27.2749407,7.99188406 27.0767721,7.26018445 L25.8877602,3.3730303 L24.1042424,3.3730303 L26.7109223,10.8577075 L28.7383399,10.8577075 Z M35.7809486,11.0406324 C36.7260606,11.0406324 37.6254414,10.7052701 38.3418972,10.2327141 L37.7473913,9.13516469 C37.1986166,9.48577075 36.6498419,9.68393939 36.0096047,9.68393939 C34.8053491,9.68393939 33.9516996,8.92175231 33.7992622,7.59554677 L38.5553096,7.59554677 C38.6010408,7.41262187 38.6315283,7.07725955 38.6315283,6.74189723 C38.6315283,4.65350461 37.5644664,3.1901054 35.5370487,3.1901054 C33.7840184,3.1901054 32.0919631,4.68399209 32.0919631,7.12299078 C32.0919631,9.59247694 33.7077997,11.0406324 35.7809486,11.0406324 Z M37.1071542,6.40653491 L33.7840184,6.40653491 C33.9364559,5.20227931 34.698643,4.54679842 35.58278,4.54679842 C36.6041107,4.54679842 37.1071542,5.24801054 37.1071542,6.40653491 Z M42.0613702,10.8577075 L42.0613702,6.28458498 C42.5186825,5.15654809 43.2351383,4.74496706 43.8296443,4.74496706 C44.1497628,4.74496706 44.3479315,4.79069829 44.6070751,4.866917 L44.9119499,3.34254282 C44.6832938,3.23583663 44.4393939,3.1901054 44.0583004,3.1901054 C43.2656258,3.1901054 42.4729513,3.72363636 41.9394203,4.69923584 L41.8784453,4.69923584 L41.7564954,3.3730303 L40.3083399,3.3730303 L40.3083399,10.8577075 L42.0613702,10.8577075 Z M46.4972991,13.9369433 C48.1283794,13.9369433 48.9058103,12.8851252 49.5308037,11.1930698 L52.2441897,3.3730303 L50.5521344,3.3730303 L49.4240975,7.04677207 C49.2411726,7.71749671 49.043004,8.46444005 48.8600791,9.15040843 L48.7991041,9.15040843 C48.570448,8.44919631 48.3570356,7.70225296 48.1436232,7.04677207 L46.8479051,3.3730303 L45.0643874,3.3730303 L48.0064295,10.7662451 L47.8692358,11.2388011 C47.625336,11.9857444 47.1680237,12.5192754 46.3753491,12.5192754 C46.1924242,12.5192754 45.9790119,12.4583004 45.8418182,12.4125692 L45.5216996,13.7845059 C45.796087,13.8759684 46.0857181,13.9369433 46.4972991,13.9369433 Z M59.2105797,11.0406324 C60.018498,11.0406324 60.7806851,10.5985639 61.3294598,10.0497892 L61.3904348,10.0497892 L61.5123847,10.8577075 L62.9605402,10.8577075 L62.9605402,0.0956258235 L61.2075099,0.0956258235 L61.2075099,2.80901186 L61.2684848,4.01326746 C60.6892227,3.51022398 60.1556917,3.1901054 59.3020422,3.1901054 C57.6709618,3.1901054 56.1313439,4.68399209 56.1313439,7.12299078 C56.1313439,9.59247694 57.3355995,11.0406324 59.2105797,11.0406324 Z M59.6374045,9.59247694 C58.5550988,9.59247694 57.9453491,8.72358366 57.9453491,7.10774704 C57.9453491,5.53764163 58.72278,4.63826087 59.6831357,4.63826087 C60.1861792,4.63826087 60.6892227,4.80594203 61.2075099,5.26325428 L61.2075099,8.75407115 C60.7044664,9.33333333 60.2166667,9.59247694 59.6374045,9.59247694 Z M66.9391568,10.8577075 L66.9391568,6.28458498 C67.396469,5.15654809 68.1129249,4.74496706 68.7074308,4.74496706 C69.0275494,4.74496706 69.2257181,4.79069829 69.4848617,4.866917 L69.7897365,3.34254282 C69.5610804,3.23583663 69.3171805,3.1901054 68.936087,3.1901054 C68.1434124,3.1901054 67.3507378,3.72363636 66.8172069,4.69923584 L66.7562319,4.69923584 L66.6342819,3.3730303 L65.1861265,3.3730303 L65.1861265,10.8577075 L66.9391568,10.8577075 Z M71.7561792,2.06206851 C72.3811726,2.06206851 72.8384848,1.65048748 72.8384848,1.0712253 C72.8384848,0.476719368 72.3811726,0.0651383399 71.7561792,0.0651383399 C71.1311858,0.0651383399 70.6738735,0.476719368 70.6738735,1.0712253 C70.6738735,1.65048748 71.1311858,2.06206851 71.7561792,2.06206851 Z M72.6250725,10.8577075 L72.6250725,3.3730303 L70.8720422,3.3730303 L70.8720422,10.8577075 L72.6250725,10.8577075 Z M78.5701318,10.8577075 L81.1158366,3.3730303 L79.4237813,3.3730303 L78.2347694,7.26018445 C78.021357,7.99188406 77.8079447,8.75407115 77.5945323,9.51625823 L77.5335573,9.51625823 C77.3353887,8.75407115 77.1067325,7.99188406 76.9085639,7.26018445 L75.719552,3.3730303 L73.9360343,3.3730303 L76.5427141,10.8577075 L78.5701318,10.8577075 Z M85.6127404,11.0406324 C86.5578524,11.0406324 87.4572332,10.7052701 88.1736891,10.2327141 L87.5791831,9.13516469 C87.0304084,9.48577075 86.4816337,9.68393939 85.8413966,9.68393939 C84.637141,9.68393939 83.7834914,8.92175231 83.631054,7.59554677 L88.3871014,7.59554677 C88.4328327,7.41262187 88.4633202,7.07725955 88.4633202,6.74189723 C88.4633202,4.65350461 87.3962582,3.1901054 85.3688406,3.1901054 C83.6158103,3.1901054 81.9237549,4.68399209 81.9237549,7.12299078 C81.9237549,9.59247694 83.5395916,11.0406324 85.6127404,11.0406324 Z M86.938946,6.40653491 L83.6158103,6.40653491 C83.7682477,5.20227931 84.5304348,4.54679842 85.4145718,4.54679842 C86.4359025,4.54679842 86.938946,5.24801054 86.938946,6.40653491 Z M92.2285244,11.0406324 C94.1187484,11.0406324 95.1400791,10.004058 95.1400791,8.72358366 C95.1400791,7.32115942 94.0120422,6.83335968 92.9907115,6.45226614 C92.1827931,6.16263505 91.4358498,5.93397892 91.4358498,5.33947299 C91.4358498,4.866917 91.7864559,4.51631094 92.5333992,4.51631094 C93.1279051,4.51631094 93.6614361,4.77545455 94.1797233,5.15654809 L94.9876416,4.08948617 C94.377892,3.61693017 93.5394862,3.1901054 92.5029117,3.1901054 C90.8261001,3.1901054 89.7742819,4.11997365 89.7742819,5.43093544 C89.7742819,6.68092227 90.8870751,7.24494071 91.8779183,7.61079051 C92.6705929,7.91566535 93.4785112,8.1900527 93.4785112,8.81504611 C93.4785112,9.33333333 93.0974177,9.71442688 92.2894993,9.71442688 C91.5273123,9.71442688 90.8870751,9.3943083 90.2163505,8.87602108 L89.3931884,10.004058 C90.124888,10.5985639 91.2071937,11.0406324 92.2285244,11.0406324 Z M101.984519,11.0406324 C103.00585,11.0406324 103.737549,10.5375889 104.39303,9.7601581 L104.438762,9.7601581 L104.575955,10.8577075 L106.008867,10.8577075 L106.008867,3.3730303 L104.255837,3.3730303 L104.255837,8.49492754 C103.691818,9.22662714 103.24975,9.53150198 102.594269,9.53150198 C101.78635,9.53150198 101.435744,9.07418972 101.435744,7.83944664 L101.435744,3.3730303 L99.6827141,3.3730303 L99.6827141,8.06810277 C99.6827141,9.95832675 100.383926,11.0406324 101.984519,11.0406324 Z M110.322846,11.0406324 C112.21307,11.0406324 113.234401,10.004058 113.234401,8.72358366 C113.234401,7.32115942 112.106364,6.83335968 111.085033,6.45226614 C110.277115,6.16263505 109.530171,5.93397892 109.530171,5.33947299 C109.530171,4.866917 109.880777,4.51631094 110.627721,4.51631094 C111.222227,4.51631094 111.755758,4.77545455 112.274045,5.15654809 L113.081963,4.08948617 C112.472213,3.61693017 111.633808,3.1901054 110.597233,3.1901054 C108.920422,3.1901054 107.868603,4.11997365 107.868603,5.43093544 C107.868603,6.68092227 108.981397,7.24494071 109.97224,7.61079051 C110.764914,7.91566535 111.572833,8.1900527 111.572833,8.81504611 C111.572833,9.33333333 111.191739,9.71442688 110.383821,9.71442688 C109.621634,9.71442688 108.981397,9.3943083 108.310672,8.87602108 L107.48751,10.004058 C108.219209,10.5985639 109.301515,11.0406324 110.322846,11.0406324 Z"/>
      <path fill="#2EB9E4" d="M115.037182,9.45457369 C115.060548,8.86953288 115.549636,8.41182539 116.13494,8.42724928 C116.720244,8.44267316 117.184546,8.92550431 117.177067,9.51096374 C117.169587,10.0964232 116.693102,10.5672355 116.107595,10.5677019 C115.816369,10.5672244 115.537848,10.4483832 115.335988,10.2384669 C115.134127,10.0285506 115.02627,9.74559526 115.037182,9.45457369 L115.037182,9.45457369 Z"/>
    </g>
  </g>
</svg>
