<?xml version="1.0" encoding="utf-8"?>
<!-- Generator: Adobe Illustrator 19.2.1, SVG Export Plug-In . SVG Version: 6.00 Build 0)  -->
<svg version="1.1" id="layer" xmlns="http://www.w3.org/2000/svg" xmlns:xlink="http://www.w3.org/1999/xlink" x="0px" y="0px"
	 viewBox="0 0 652 652" style="enable-background:new 0 0 652 652;" xml:space="preserve">
<style type="text/css">
	.st0{fill:#C90107;}
	.st1{fill:#FFFFFF;}
</style>
<polygon class="st0" points="11.4,71 11.4,571 630.1,571 629.4,71 11.4,71 "/>
<path class="st1" d="M262.4,216.4L156.8,423h37.9l105.7-206.6H262.4C262.4,216.4,262.4,216.4,262.4,216.4z"/>
<path class="st1" d="M373,216.4L373,216.4l-37.3,0l0,206.6h37.8v-42.5h49.3l21.6,42.4h37.6L378,216.4H373L373,216.4L373,216.4z
	 M373.4,283.7l33.9,66.7h-33.9V283.7z"/>
<path class="st1" d="M269.1,350.5H303v-66.7L269.1,350.5z"/>
<path class="st1" d="M491,404.2h1.4c1.6,0,3-0.6,3-2.1c0-1.1-0.8-2.2-3-2.2c-0.6,0-1.1,0.1-1.4,0.1V404.2z M491,411H489v-12.2
	c1-0.1,2-0.3,3.5-0.3c1.9,0,3.1,0.4,3.8,0.9c0.7,0.5,1.1,1.4,1.1,2.5c0,1.6-1.1,2.6-2.4,3v0.1c1.1,0.2,1.8,1.2,2.1,3
	c0.3,1.9,0.6,2.6,0.8,3h-2c-0.3-0.4-0.6-1.5-0.8-3.1c-0.3-1.6-1.1-2.2-2.6-2.2H491L491,411L491,411z M493,395.4
	c-4.8,0-8.8,4.1-8.8,9.3c0,5.2,3.9,9.3,8.8,9.3c4.9,0.1,8.8-4.1,8.8-9.3C501.9,399.5,497.9,395.4,493,395.4L493,395.4L493,395.4z
	 M493.1,393.7c6,0,10.8,4.9,10.8,11c0,6.2-4.8,11-10.8,11c-6,0-10.9-4.8-10.9-11C482.2,398.5,487,393.7,493.1,393.7L493.1,393.7z"/>
<path class="st1" d="M253.5,381.4l-21.1,41.7h70.8v-41.7L253.5,381.4L253.5,381.4L253.5,381.4z"/>
</svg>
